<svg width="16" height="17" viewBox="0 0 16 17" fill="none" xmlns="http://www.w3.org/2000/svg">
<path d="M12.714 11.8807C11.9864 12.6083 10.5188 14.0758 9.41335 15.1813C8.6323 15.9624 7.36751 15.9623 6.58646 15.1813C5.50084 14.0957 4.06038 12.6552 3.28587 11.8807C0.682378 9.27722 0.682378 5.05612 3.28587 2.45262C5.88937 -0.150874 10.1105 -0.150874 12.714 2.45262C15.3175 5.05612 15.3175 9.27722 12.714 11.8807Z" stroke="white" stroke-linecap="round" stroke-linejoin="round"/>
<path d="M10.4999 7.16667C10.4999 8.54738 9.38063 9.66667 7.99992 9.66667C6.61921 9.66667 5.49992 8.54738 5.49992 7.16667C5.49992 5.78596 6.61921 4.66667 7.99992 4.66667C9.38063 4.66667 10.4999 5.78596 10.4999 7.16667Z" stroke="white" stroke-linecap="round" stroke-linejoin="round"/>
</svg>
