<svg width="16" height="17" viewBox="0 0 16 17" fill="none" xmlns="http://www.w3.org/2000/svg">
<path d="M12.8334 4.49992C12.8334 5.07451 12.3975 5.61279 11.4567 6.03327C10.5367 6.44449 9.27755 6.66659 8.00008 6.66659C6.72261 6.66659 5.46351 6.44449 4.54343 6.03327C3.60264 5.61279 3.16675 5.07451 3.16675 4.49992C3.16675 3.92533 3.60264 3.38704 4.54343 2.96657C5.46351 2.55535 6.72261 2.33325 8.00008 2.33325C9.27755 2.33325 10.5367 2.55535 11.4567 2.96657C12.3975 3.38704 12.8334 3.92533 12.8334 4.49992Z" stroke="#FBFE67"/>
<path d="M2.66675 7.16659C2.66675 8.91725 5.34941 9.83325 8.00008 9.83325C10.6507 9.83325 13.3334 8.91725 13.3334 7.16659V5.83325C13.3334 7.58392 10.6507 8.49992 8.00008 8.49992C5.34941 8.49992 2.66675 7.58392 2.66675 5.83325V7.16659Z" fill="#FBFE67"/>
<path d="M2.66675 9.83333C2.66675 11.584 5.34941 12.5 8.00008 12.5C10.6507 12.5 13.3334 11.584 13.3334 9.83333V8.5C13.3334 10.2507 10.6507 11.1667 8.00008 11.1667C5.34941 11.1667 2.66675 10.2507 2.66675 8.5V9.83333Z" fill="#FBFE67"/>
<path d="M2.66675 12.5001C2.66675 14.2507 5.34941 15.1667 8.00008 15.1667C10.6507 15.1667 13.3334 14.2507 13.3334 12.5001V11.1667C13.3334 12.9174 10.6507 13.8334 8.00008 13.8334C5.34941 13.8334 2.66675 12.9174 2.66675 11.1667V12.5001Z" fill="#FBFE67"/>
</svg>
