<svg width="22" height="22" viewBox="0 0 22 22" fill="none" xmlns="http://www.w3.org/2000/svg">
<path d="M11.8839 1.36612C11.3957 0.877961 10.6043 0.877961 10.1161 1.36612L1.36612 10.1161C0.877961 10.6043 0.877961 11.3957 1.36612 11.8839C1.85427 12.372 2.64573 12.372 3.13388 11.8839L3.5 11.5178V19.75C3.5 20.4404 4.05964 21 4.75 21H7.25C7.94036 21 8.5 20.4404 8.5 19.75V17.25C8.5 16.5596 9.05964 16 9.75 16H12.25C12.9404 16 13.5 16.5596 13.5 17.25V19.75C13.5 20.4404 14.0596 21 14.75 21H17.25C17.9404 21 18.5 20.4404 18.5 19.75V11.5178L18.8661 11.8839C19.3543 12.372 20.1457 12.372 20.6339 11.8839C21.122 11.3957 21.122 10.6043 20.6339 10.1161L11.8839 1.36612Z" stroke="#12110F"/>
</svg>
