<svg width="21" height="20" viewBox="0 0 21 20" fill="none" xmlns="http://www.w3.org/2000/svg">
<path d="M3.87104 15.8037C5.90267 14.6554 8.2498 14 10.75 14C13.2502 14 15.5973 14.6554 17.629 15.8037M13.75 8C13.75 9.65685 12.4069 11 10.75 11C9.09315 11 7.75 9.65685 7.75 8C7.75 6.34315 9.09315 5 10.75 5C12.4069 5 13.75 6.34315 13.75 8ZM19.75 10C19.75 14.9706 15.7206 19 10.75 19C5.77944 19 1.75 14.9706 1.75 10C1.75 5.02944 5.77944 1 10.75 1C15.7206 1 19.75 5.02944 19.75 10Z" stroke="white" stroke-width="2" stroke-linecap="round" stroke-linejoin="round"/>
</svg>
