<svg width="28" height="28" viewBox="0 0 28 28" fill="none" xmlns="http://www.w3.org/2000/svg">
<path fill-rule="evenodd" clip-rule="evenodd" d="M18.573 24.0247C18.217 24.0247 17.86 23.8888 17.588 23.6168L8.408 14.4368C8.147 14.1748 8 13.8208 8 13.4508C8 13.0808 8.147 12.7268 8.408 12.4648L17.465 3.40875C18.01 2.86375 18.892 2.86375 19.436 3.40875C19.981 3.95375 19.981 4.83675 19.436 5.37975L11.365 13.4508L19.559 21.6448C20.103 22.1898 20.103 23.0728 19.559 23.6168C19.287 23.8888 18.93 24.0247 18.573 24.0247Z" fill="#12110F"/>
<mask id="mask0_0_1519" style="mask-type:luminance" maskUnits="userSpaceOnUse" x="8" y="3" width="12" height="22">
<path fill-rule="evenodd" clip-rule="evenodd" d="M18.573 24.0247C18.217 24.0247 17.86 23.8888 17.588 23.6168L8.408 14.4368C8.147 14.1748 8 13.8208 8 13.4508C8 13.0808 8.147 12.7268 8.408 12.4648L17.465 3.40875C18.01 2.86375 18.892 2.86375 19.436 3.40875C19.981 3.95375 19.981 4.83675 19.436 5.37975L11.365 13.4508L19.559 21.6448C20.103 22.1898 20.103 23.0728 19.559 23.6168C19.287 23.8888 18.93 24.0247 18.573 24.0247Z" fill="white"/>
</mask>
<g mask="url(#mask0_0_1519)">
<rect x="8" y="3" width="12" height="22" fill="#12110F"/>
</g>
</svg>
