<svg width="300" height="40" viewBox="0 0 300 40" fill="none" xmlns="http://www.w3.org/2000/svg">
<rect width="16.0544" height="6.66664" rx="3.33332" fill="black"/>
<rect x="32.1091" width="16.0544" height="6.66664" rx="3.33332" fill="black"/>
<rect y="6.6665" width="16.0544" height="6.66664" rx="3.33332" fill="black"/>
<rect x="32.1091" y="6.6665" width="16.0544" height="6.66664" rx="3.33332" fill="black"/>
<rect y="13.3333" width="16.0544" height="6.66664" rx="3.33332" fill="black"/>
<rect y="20" width="16.0544" height="6.66664" rx="3.33332" fill="black"/>
<rect y="26.6667" width="16.0544" height="6.66664" rx="3.33332" fill="black"/>
<rect y="33.3333" width="16.0544" height="6.66664" rx="3.33332" fill="black"/>
<rect x="32.1091" y="26.6667" width="16.0544" height="6.66664" rx="3.33332" fill="black"/>
<rect x="32.1091" y="33.3333" width="16.0544" height="6.66664" rx="3.33332" fill="black"/>
<rect x="16.0542" width="16.0544" height="6.66664" rx="3.33332" fill="black"/>
<rect x="16.0542" y="26.6667" width="16.0544" height="6.66664" rx="3.33332" fill="black"/>
<rect x="16.0542" y="6.6665" width="16.0544" height="6.66664" rx="3.33332" fill="black"/>
<rect x="16.0542" y="33.3333" width="16.0544" height="6.66664" rx="3.33332" fill="black"/>
<rect x="56.7349" width="16.0544" height="6.66664" rx="3.33332" fill="black"/>
<rect x="88.844" width="16.0544" height="6.66664" rx="3.33332" fill="black"/>
<rect x="56.7349" y="6.6665" width="16.0544" height="6.66664" rx="3.33332" fill="black"/>
<rect x="88.844" y="6.6665" width="16.0544" height="6.66664" rx="3.33332" fill="black"/>
<rect x="56.7349" y="13.3333" width="16.0544" height="6.66664" rx="3.33332" fill="black"/>
<rect x="88.844" y="13.3333" width="16.0544" height="6.66664" rx="3.33332" fill="black"/>
<rect x="56.7349" y="20" width="16.0544" height="6.66664" rx="3.33332" fill="black"/>
<rect x="88.844" y="20" width="16.0544" height="6.66664" rx="3.33332" fill="black"/>
<rect x="56.7349" y="26.6667" width="16.0544" height="6.66664" rx="3.33332" fill="black"/>
<rect x="56.7349" y="33.3333" width="16.0544" height="6.66664" rx="3.33332" fill="black"/>
<rect x="88.844" y="26.6667" width="16.0544" height="6.66664" rx="3.33332" fill="black"/>
<rect x="88.844" y="33.3333" width="16.0544" height="6.66664" rx="3.33332" fill="black"/>
<rect x="72.7893" y="20" width="16.0544" height="6.66664" rx="3.33332" fill="black"/>
<rect x="72.7893" y="13.469" width="16.0544" height="6.66664" rx="3.33332" fill="black"/>
<rect x="113.469" width="16.0544" height="6.66664" rx="3.33332" fill="black"/>
<rect x="113.469" y="13.3333" width="16.0544" height="6.66664" rx="3.33332" fill="black"/>
<rect x="113.469" y="26.6667" width="16.0544" height="6.66664" rx="3.33332" fill="black"/>
<rect x="113.469" y="6.6665" width="16.0544" height="6.66664" rx="3.33332" fill="black"/>
<rect x="113.469" y="20" width="16.0544" height="6.66664" rx="3.33332" fill="black"/>
<rect x="113.469" y="33.3333" width="16.0544" height="6.66664" rx="3.33332" fill="black"/>
<rect x="138.095" width="16.0544" height="6.66664" rx="3.33332" fill="black"/>
<rect x="170.204" width="16.0544" height="6.66664" rx="3.33332" fill="black"/>
<rect x="138.095" y="6.6665" width="16.0544" height="6.66664" rx="3.33332" fill="black"/>
<rect x="138.095" y="13.3333" width="16.0544" height="6.66664" rx="3.33332" fill="black"/>
<rect x="170.204" y="13.3333" width="16.0544" height="6.66664" rx="3.33332" fill="black"/>
<rect x="138.095" y="20" width="16.0544" height="6.66664" rx="3.33332" fill="black"/>
<rect x="170.204" y="20" width="16.0544" height="6.66664" rx="3.33332" fill="black"/>
<rect x="138.095" y="26.6667" width="16.0544" height="6.66664" rx="3.33332" fill="black"/>
<rect x="138.095" y="33.3333" width="16.0544" height="6.66664" rx="3.33332" fill="black"/>
<rect x="170.204" y="33.3333" width="16.0544" height="6.66664" rx="3.33332" fill="black"/>
<rect x="154.149" width="16.0544" height="6.66664" rx="3.33332" fill="black"/>
<rect x="154.149" y="13.3333" width="16.0544" height="6.66664" rx="3.33332" fill="black"/>
<rect x="154.149" y="20" width="16.0544" height="6.66664" rx="3.33332" fill="black"/>
<rect x="154.149" y="33.3333" width="16.0544" height="6.66664" rx="3.33332" fill="black"/>
<rect x="224.489" y="20" width="8.97954" height="6.66664" rx="3.33332" fill="black"/>
<rect x="221.224" y="26.6667" width="8.97954" height="6.66664" rx="3.33332" fill="black"/>
<rect x="227.755" y="13.3333" width="8.97954" height="6.66664" rx="3.33332" fill="black"/>
<rect x="231.02" y="6.6665" width="8.97958" height="6.66664" rx="3.33332" fill="black"/>
<rect x="234.285" width="8.97958" height="6.66664" rx="3.33332" fill="black"/>
<rect width="16.0544" height="6.66664" rx="3.33332" transform="matrix(-1 0 0 1 210.884 0)" fill="black"/>
<rect width="16.0544" height="6.66664" rx="3.33332" transform="matrix(-1 0 0 1 214.149 6.6665)" fill="black"/>
<rect width="16.0544" height="6.66664" rx="3.33332" transform="matrix(-1 0 0 1 217.415 13.3333)" fill="black"/>
<rect width="16.0544" height="6.66664" rx="3.33332" transform="matrix(-1 0 0 1 220.68 20)" fill="black"/>
<rect width="16.0544" height="6.66664" rx="3.33332" transform="matrix(-1 0 0 1 223.945 26.6667)" fill="black"/>
<rect x="210.884" y="33.3333" width="16.0544" height="6.66664" rx="3.33332" fill="black"/>
<rect x="251.837" width="16.0544" height="6.66664" rx="3.33332" fill="black"/>
<rect x="283.946" width="16.0544" height="6.66664" rx="3.33332" fill="black"/>
<rect x="251.837" y="6.6665" width="16.0544" height="6.66664" rx="3.33332" fill="black"/>
<rect x="251.837" y="13.3333" width="16.0544" height="6.66664" rx="3.33332" fill="black"/>
<rect x="283.946" y="13.3333" width="16.0544" height="6.66664" rx="3.33332" fill="black"/>
<rect x="251.837" y="20" width="16.0544" height="6.66664" rx="3.33332" fill="black"/>
<rect x="283.946" y="20" width="16.0544" height="6.66664" rx="3.33332" fill="black"/>
<rect x="251.837" y="26.6667" width="16.0544" height="6.66664" rx="3.33332" fill="black"/>
<rect x="251.837" y="33.3333" width="16.0544" height="6.66664" rx="3.33332" fill="black"/>
<rect x="283.946" y="33.3333" width="16.0544" height="6.66664" rx="3.33332" fill="black"/>
<rect x="267.891" width="16.0544" height="6.66664" rx="3.33332" fill="black"/>
<rect x="267.891" y="13.3333" width="16.0544" height="6.66664" rx="3.33332" fill="black"/>
<rect x="267.891" y="20" width="16.0544" height="6.66664" rx="3.33332" fill="black"/>
<rect x="267.891" y="33.3333" width="16.0544" height="6.66664" rx="3.33332" fill="black"/>
</svg>
