<svg width="300" height="30" viewBox="0 0 300 30" fill="none" xmlns="http://www.w3.org/2000/svg">
<rect x="134.676" width="11.7804" height="4.89185" rx="2.44592" fill="black"/>
<rect x="158.236" width="11.7804" height="4.89185" rx="2.44592" fill="black"/>
<rect x="134.676" y="4.89185" width="11.7804" height="4.89185" rx="2.44592" fill="black"/>
<rect x="158.236" y="4.89185" width="11.7804" height="4.89185" rx="2.44592" fill="black"/>
<rect x="134.676" y="9.78369" width="11.7804" height="4.89185" rx="2.44592" fill="black"/>
<rect x="134.676" y="14.6755" width="11.7804" height="4.89185" rx="2.44592" fill="black"/>
<rect x="134.676" y="19.5674" width="11.7804" height="4.89185" rx="2.44592" fill="black"/>
<rect x="134.676" y="24.4592" width="11.7804" height="4.89185" rx="2.44592" fill="black"/>
<rect x="158.236" y="19.5674" width="11.7804" height="4.89185" rx="2.44592" fill="black"/>
<rect x="158.236" y="24.4592" width="11.7804" height="4.89185" rx="2.44592" fill="black"/>
<rect x="146.456" width="11.7804" height="4.89185" rx="2.44592" fill="black"/>
<rect x="146.456" y="19.5674" width="11.7804" height="4.89185" rx="2.44592" fill="black"/>
<rect x="146.456" y="4.89185" width="11.7804" height="4.89185" rx="2.44592" fill="black"/>
<rect x="146.456" y="24.4592" width="11.7804" height="4.89185" rx="2.44592" fill="black"/>
<rect x="173.012" width="11.7804" height="4.89185" rx="2.44592" fill="black"/>
<rect x="196.572" width="11.7804" height="4.89185" rx="2.44592" fill="black"/>
<rect x="173.012" y="4.89185" width="11.7804" height="4.89185" rx="2.44592" fill="black"/>
<rect x="196.572" y="4.89185" width="11.7804" height="4.89185" rx="2.44592" fill="black"/>
<rect x="173.012" y="9.78369" width="11.7804" height="4.89185" rx="2.44592" fill="black"/>
<rect x="196.572" y="9.78369" width="11.7804" height="4.89185" rx="2.44592" fill="black"/>
<rect x="173.012" y="14.6755" width="11.7804" height="4.89185" rx="2.44592" fill="black"/>
<rect x="196.572" y="14.6755" width="11.7804" height="4.89185" rx="2.44592" fill="black"/>
<rect x="173.012" y="19.5674" width="11.7804" height="4.89185" rx="2.44592" fill="black"/>
<rect x="173.012" y="24.4592" width="11.7804" height="4.89185" rx="2.44592" fill="black"/>
<rect x="196.572" y="19.5674" width="11.7804" height="4.89185" rx="2.44592" fill="black"/>
<rect x="196.572" y="24.4592" width="11.7804" height="4.89185" rx="2.44592" fill="black"/>
<rect x="184.792" y="14.6755" width="11.7804" height="4.89185" rx="2.44592" fill="black"/>
<rect x="184.792" y="9.88354" width="11.7804" height="4.89185" rx="2.44592" fill="black"/>
<rect x="211.348" width="11.7804" height="4.89185" rx="2.44592" fill="black"/>
<rect x="211.348" y="9.78369" width="11.7804" height="4.89185" rx="2.44592" fill="black"/>
<rect x="211.348" y="19.5674" width="11.7804" height="4.89185" rx="2.44592" fill="black"/>
<rect x="211.348" y="4.89185" width="11.7804" height="4.89185" rx="2.44592" fill="black"/>
<rect x="211.348" y="14.6755" width="11.7804" height="4.89185" rx="2.44592" fill="black"/>
<rect x="211.348" y="24.4592" width="11.7804" height="4.89185" rx="2.44592" fill="black"/>
<rect x="247.887" y="14.6755" width="6.58902" height="4.89185" rx="2.44592" fill="black"/>
<rect x="245.491" y="19.5674" width="6.58902" height="4.89185" rx="2.44592" fill="black"/>
<rect x="250.283" y="9.78369" width="6.58902" height="4.89185" rx="2.44592" fill="black"/>
<rect x="252.679" y="4.89185" width="6.58901" height="4.89185" rx="2.44592" fill="black"/>
<rect x="255.075" width="6.58902" height="4.89185" rx="2.44592" fill="black"/>
<rect width="11.7804" height="4.89185" rx="2.44592" transform="matrix(-1 0 0 1 237.903 0)" fill="black"/>
<rect width="11.7804" height="4.89185" rx="2.44592" transform="matrix(-1 0 0 1 240.3 4.89185)" fill="black"/>
<rect width="11.7804" height="4.89185" rx="2.44592" transform="matrix(-1 0 0 1 242.695 9.78369)" fill="black"/>
<rect width="11.7804" height="4.89185" rx="2.44592" transform="matrix(-1 0 0 1 245.092 14.6755)" fill="black"/>
<rect width="11.7804" height="4.89185" rx="2.44592" transform="matrix(-1 0 0 1 247.487 19.5674)" fill="black"/>
<rect x="237.903" y="24.4592" width="11.7804" height="4.89185" rx="2.44592" fill="black"/>
<rect x="264.659" width="11.7804" height="4.89185" rx="2.44592" fill="black"/>
<rect x="288.22" width="11.7804" height="4.89185" rx="2.44592" fill="black"/>
<rect x="264.659" y="4.89185" width="11.7804" height="4.89185" rx="2.44592" fill="black"/>
<rect x="264.659" y="9.78369" width="11.7804" height="4.89185" rx="2.44592" fill="black"/>
<rect x="288.22" y="9.78369" width="11.7804" height="4.89185" rx="2.44592" fill="black"/>
<rect x="264.659" y="14.6755" width="11.7804" height="4.89185" rx="2.44592" fill="black"/>
<rect x="288.22" y="14.6755" width="11.7804" height="4.89185" rx="2.44592" fill="black"/>
<rect x="264.659" y="19.5674" width="11.7804" height="4.89185" rx="2.44592" fill="black"/>
<rect x="264.659" y="24.4592" width="11.7804" height="4.89185" rx="2.44592" fill="black"/>
<rect x="288.22" y="24.4592" width="11.7804" height="4.89185" rx="2.44592" fill="black"/>
<rect x="276.439" width="11.7804" height="4.89185" rx="2.44592" fill="black"/>
<rect x="276.439" y="9.78369" width="11.7804" height="4.89185" rx="2.44592" fill="black"/>
<rect x="276.439" y="14.6755" width="11.7804" height="4.89185" rx="2.44592" fill="black"/>
<rect x="276.439" y="24.4592" width="11.7804" height="4.89185" rx="2.44592" fill="black"/>
<rect width="11.7804" height="4.89185" rx="2.44592" fill="black"/>
<rect x="23.5605" width="11.7804" height="4.89185" rx="2.44592" fill="black"/>
<rect y="4.89185" width="11.7804" height="4.89185" rx="2.44592" fill="black"/>
<rect x="23.5605" y="4.89185" width="11.7804" height="4.89185" rx="2.44592" fill="black"/>
<rect y="9.78369" width="11.7804" height="4.89185" rx="2.44592" fill="black"/>
<rect x="23.5605" y="9.78369" width="11.7804" height="4.89185" rx="2.44592" fill="black"/>
<rect y="14.6755" width="11.7804" height="4.89185" rx="2.44592" fill="black"/>
<rect x="23.5605" y="14.6755" width="11.7804" height="4.89185" rx="2.44592" fill="black"/>
<rect y="19.5674" width="11.7804" height="4.89185" rx="2.44592" fill="black"/>
<rect y="24.4592" width="11.7804" height="4.89185" rx="2.44592" fill="black"/>
<rect x="23.5605" y="19.5674" width="11.7804" height="4.89185" rx="2.44592" fill="black"/>
<rect x="23.5605" y="24.4592" width="11.7804" height="4.89185" rx="2.44592" fill="black"/>
<rect x="11.7803" width="11.7804" height="4.89185" rx="2.44592" fill="black"/>
<rect x="11.7803" y="19.5674" width="11.7804" height="4.89185" rx="2.44592" fill="black"/>
<rect x="11.7803" y="4.89185" width="11.7804" height="4.89185" rx="2.44592" fill="black"/>
<rect x="11.7803" y="24.4592" width="11.7804" height="4.89185" rx="2.44592" fill="black"/>
<rect x="38.3359" width="11.7804" height="4.89185" rx="2.44592" fill="black"/>
<rect x="61.8965" width="11.7804" height="4.89185" rx="2.44592" fill="black"/>
<rect x="38.3359" y="4.89185" width="11.7804" height="4.89185" rx="2.44592" fill="black"/>
<rect x="61.8965" y="4.89185" width="11.7804" height="4.89185" rx="2.44592" fill="black"/>
<rect x="38.3359" y="9.78369" width="11.7804" height="4.89185" rx="2.44592" fill="black"/>
<rect x="61.8965" y="9.78369" width="11.7804" height="4.89185" rx="2.44592" fill="black"/>
<rect x="38.3359" y="14.6755" width="11.7804" height="4.89185" rx="2.44592" fill="black"/>
<rect x="61.8965" y="14.6755" width="11.7804" height="4.89185" rx="2.44592" fill="black"/>
<rect x="38.3359" y="19.5674" width="11.7804" height="4.89185" rx="2.44592" fill="black"/>
<rect x="38.3359" y="24.4592" width="11.7804" height="4.89185" rx="2.44592" fill="black"/>
<rect x="61.8965" y="19.5674" width="11.7804" height="4.89185" rx="2.44592" fill="black"/>
<rect x="61.8965" y="24.4592" width="11.7804" height="4.89185" rx="2.44592" fill="black"/>
<rect x="50.1162" y="19.5674" width="11.7804" height="4.89185" rx="2.44592" fill="black"/>
<rect x="50.1162" y="24.4592" width="11.7804" height="4.89185" rx="2.44592" fill="black"/>
<rect x="76.6719" width="11.7804" height="4.89185" rx="2.44592" fill="black"/>
<rect x="76.6719" y="4.89185" width="11.7804" height="4.89185" rx="2.44592" fill="black"/>
<rect x="100.232" y="2.49585" width="11.7804" height="4.89185" rx="2.44592" fill="black"/>
<rect x="76.6719" y="9.78369" width="11.7804" height="4.89185" rx="2.44592" fill="black"/>
<rect x="100.232" y="7.3877" width="11.7804" height="4.89185" rx="2.44592" fill="black"/>
<rect x="76.6719" y="14.6755" width="11.7804" height="4.89185" rx="2.44592" fill="black"/>
<rect x="76.6719" y="19.5674" width="11.7804" height="4.89185" rx="2.44592" fill="black"/>
<rect x="76.6719" y="24.4592" width="11.7804" height="4.89185" rx="2.44592" fill="black"/>
<rect x="94.3428" y="19.5674" width="11.7804" height="4.89185" rx="2.44592" fill="black"/>
<rect x="100.232" y="24.4592" width="11.7804" height="4.89185" rx="2.44592" fill="black"/>
<rect x="88.4521" y="14.6755" width="11.7804" height="4.89185" rx="2.44592" fill="black"/>
<rect x="88.4521" width="11.7804" height="4.89185" rx="2.44592" fill="black"/>
<rect x="88.4521" y="4.89185" width="11.7804" height="4.89185" rx="2.44592" fill="black"/>
<rect x="88.4521" y="9.78369" width="11.7804" height="4.89185" rx="2.44592" fill="black"/>
</svg>
