<svg width="280" height="45" viewBox="0 0 280 45" fill="none" xmlns="http://www.w3.org/2000/svg">
<rect width="17.9809" height="7.46664" rx="3.73332" fill="black"/>
<rect x="35.9622" width="17.9809" height="7.46664" rx="3.73332" fill="black"/>
<rect y="7.46655" width="17.9809" height="7.46664" rx="3.73332" fill="black"/>
<rect x="35.9622" y="7.46655" width="17.9809" height="7.46664" rx="3.73332" fill="black"/>
<rect y="14.9333" width="17.9809" height="7.46664" rx="3.73332" fill="black"/>
<rect y="22.3999" width="17.9809" height="7.46664" rx="3.73332" fill="black"/>
<rect y="29.8667" width="17.9809" height="7.46664" rx="3.73332" fill="black"/>
<rect y="37.3333" width="17.9809" height="7.46664" rx="3.73332" fill="black"/>
<rect x="35.9622" y="29.8667" width="17.9809" height="7.46664" rx="3.73332" fill="black"/>
<rect x="35.9622" y="37.3333" width="17.9809" height="7.46664" rx="3.73332" fill="black"/>
<rect x="17.9807" width="17.9809" height="7.46664" rx="3.73332" fill="black"/>
<rect x="17.9807" y="29.8667" width="17.9809" height="7.46664" rx="3.73332" fill="black"/>
<rect x="17.9807" y="7.46655" width="17.9809" height="7.46664" rx="3.73332" fill="black"/>
<rect x="17.9807" y="37.3333" width="17.9809" height="7.46664" rx="3.73332" fill="black"/>
<rect x="65.4287" width="17.9809" height="7.46664" rx="3.73332" fill="black"/>
<rect x="101.391" width="17.9809" height="7.46664" rx="3.73332" fill="black"/>
<rect x="65.4287" y="7.46655" width="17.9809" height="7.46664" rx="3.73332" fill="black"/>
<rect x="101.391" y="7.46655" width="17.9809" height="7.46664" rx="3.73332" fill="black"/>
<rect x="65.4287" y="14.9333" width="17.9809" height="7.46664" rx="3.73332" fill="black"/>
<rect x="101.391" y="14.9333" width="17.9809" height="7.46664" rx="3.73332" fill="black"/>
<rect x="65.4287" y="22.3999" width="17.9809" height="7.46664" rx="3.73332" fill="black"/>
<rect x="101.391" y="22.3999" width="17.9809" height="7.46664" rx="3.73332" fill="black"/>
<rect x="65.4287" y="29.8667" width="17.9809" height="7.46664" rx="3.73332" fill="black"/>
<rect x="65.4287" y="37.3333" width="17.9809" height="7.46664" rx="3.73332" fill="black"/>
<rect x="101.391" y="29.8667" width="17.9809" height="7.46664" rx="3.73332" fill="black"/>
<rect x="101.391" y="37.3333" width="17.9809" height="7.46664" rx="3.73332" fill="black"/>
<rect x="83.4097" y="22.3999" width="17.9809" height="7.46664" rx="3.73332" fill="black"/>
<rect x="83.4097" y="15.0852" width="17.9809" height="7.46664" rx="3.73332" fill="black"/>
<rect x="130.857" width="17.9809" height="7.46664" rx="3.73332" fill="black"/>
<rect x="130.857" y="14.9333" width="17.9809" height="7.46664" rx="3.73332" fill="black"/>
<rect x="130.857" y="29.8667" width="17.9809" height="7.46664" rx="3.73332" fill="black"/>
<rect x="130.857" y="7.46655" width="17.9809" height="7.46664" rx="3.73332" fill="black"/>
<rect x="130.857" y="22.3999" width="17.9809" height="7.46664" rx="3.73332" fill="black"/>
<rect x="130.857" y="37.3333" width="17.9809" height="7.46664" rx="3.73332" fill="black"/>
<rect x="193.543" y="22.3999" width="10.0571" height="7.46664" rx="3.73332" fill="black"/>
<rect x="189.886" y="29.8667" width="10.0571" height="7.46664" rx="3.73332" fill="black"/>
<rect x="197.2" y="14.9333" width="10.0571" height="7.46664" rx="3.73332" fill="black"/>
<rect x="200.857" y="7.46655" width="10.0571" height="7.46664" rx="3.73332" fill="black"/>
<rect x="204.514" width="10.0571" height="7.46664" rx="3.73332" fill="black"/>
<rect width="17.9809" height="7.46664" rx="3.73332" transform="matrix(-1 0 0 1 178.305 0)" fill="black"/>
<rect width="17.9809" height="7.46664" rx="3.73332" transform="matrix(-1 0 0 1 181.961 7.46655)" fill="black"/>
<rect width="17.9809" height="7.46664" rx="3.73332" transform="matrix(-1 0 0 1 185.619 14.9333)" fill="black"/>
<rect width="17.9809" height="7.46664" rx="3.73332" transform="matrix(-1 0 0 1 189.276 22.3999)" fill="black"/>
<rect width="17.9809" height="7.46664" rx="3.73332" transform="matrix(-1 0 0 1 192.933 29.8667)" fill="black"/>
<rect x="178.305" y="37.3333" width="17.9809" height="7.46664" rx="3.73332" fill="black"/>
<rect x="226.057" width="17.9809" height="7.46664" rx="3.73332" fill="black"/>
<rect x="262.019" width="17.9809" height="7.46664" rx="3.73332" fill="black"/>
<rect x="226.057" y="7.46655" width="17.9809" height="7.46664" rx="3.73332" fill="black"/>
<rect x="226.057" y="14.9333" width="17.9809" height="7.46664" rx="3.73332" fill="black"/>
<rect x="262.019" y="14.9333" width="17.9809" height="7.46664" rx="3.73332" fill="black"/>
<rect x="226.057" y="22.3999" width="17.9809" height="7.46664" rx="3.73332" fill="black"/>
<rect x="262.019" y="22.3999" width="17.9809" height="7.46664" rx="3.73332" fill="black"/>
<rect x="226.057" y="29.8667" width="17.9809" height="7.46664" rx="3.73332" fill="black"/>
<rect x="226.057" y="37.3333" width="17.9809" height="7.46664" rx="3.73332" fill="black"/>
<rect x="262.019" y="37.3333" width="17.9809" height="7.46664" rx="3.73332" fill="black"/>
<rect x="244.038" width="17.9809" height="7.46664" rx="3.73332" fill="black"/>
<rect x="244.038" y="14.9333" width="17.9809" height="7.46664" rx="3.73332" fill="black"/>
<rect x="244.038" y="22.3999" width="17.9809" height="7.46664" rx="3.73332" fill="black"/>
<rect x="244.038" y="37.3333" width="17.9809" height="7.46664" rx="3.73332" fill="black"/>
</svg>
