<svg width="300" height="40" viewBox="0 0 300 40" fill="none" xmlns="http://www.w3.org/2000/svg">
<rect width="16.0544" height="6.66664" rx="3.33332" fill="black"/>
<rect x="32.1091" width="16.0544" height="6.66664" rx="3.33332" fill="black"/>
<rect y="6.6665" width="16.0544" height="6.66664" rx="3.33332" fill="black"/>
<rect x="32.1091" y="6.6665" width="16.0544" height="6.66664" rx="3.33332" fill="black"/>
<rect y="13.3333" width="16.0544" height="6.66664" rx="3.33332" fill="black"/>
<rect x="32.1091" y="13.3333" width="16.0544" height="6.66664" rx="3.33332" fill="black"/>
<rect y="20" width="16.0544" height="6.66664" rx="3.33332" fill="black"/>
<rect x="32.1091" y="20" width="16.0544" height="6.66664" rx="3.33332" fill="black"/>
<rect y="26.6667" width="16.0544" height="6.66664" rx="3.33332" fill="black"/>
<rect y="33.3333" width="16.0544" height="6.66664" rx="3.33332" fill="black"/>
<rect x="32.1091" y="26.6667" width="16.0544" height="6.66664" rx="3.33332" fill="black"/>
<rect x="32.1091" y="33.3333" width="16.0544" height="6.66664" rx="3.33332" fill="black"/>
<rect x="16.0542" width="16.0544" height="6.66664" rx="3.33332" fill="black"/>
<rect x="16.0542" y="26.6667" width="16.0544" height="6.66664" rx="3.33332" fill="black"/>
<rect x="16.0542" y="6.6665" width="16.0544" height="6.66664" rx="3.33332" fill="black"/>
<rect x="16.0542" y="33.3333" width="16.0544" height="6.66664" rx="3.33332" fill="black"/>
<rect x="125.918" width="16.0544" height="6.66664" rx="3.33332" fill="black"/>
<rect x="158.027" width="16.0544" height="6.66664" rx="3.33332" fill="black"/>
<rect x="125.918" y="6.6665" width="16.0544" height="6.66664" rx="3.33332" fill="black"/>
<rect x="158.027" y="6.6665" width="16.0544" height="6.66664" rx="3.33332" fill="black"/>
<rect x="125.918" y="13.3333" width="16.0544" height="6.66664" rx="3.33332" fill="black"/>
<rect x="158.027" y="13.3333" width="16.0544" height="6.66664" rx="3.33332" fill="black"/>
<rect x="125.918" y="20" width="16.0544" height="6.66664" rx="3.33332" fill="black"/>
<rect x="158.027" y="20" width="16.0544" height="6.66664" rx="3.33332" fill="black"/>
<rect x="125.918" y="26.6667" width="16.0544" height="6.66664" rx="3.33332" fill="black"/>
<rect x="125.918" y="33.3333" width="16.0544" height="6.66664" rx="3.33332" fill="black"/>
<rect x="158.027" y="26.6667" width="16.0544" height="6.66664" rx="3.33332" fill="black"/>
<rect x="158.027" y="33.3333" width="16.0544" height="6.66664" rx="3.33332" fill="black"/>
<rect x="141.973" y="26.6667" width="16.0544" height="6.66664" rx="3.33332" fill="black"/>
<rect x="141.973" y="33.3333" width="16.0544" height="6.66664" rx="3.33332" fill="black"/>
<rect x="251.837" width="16.0544" height="6.66664" rx="3.33332" fill="black"/>
<rect x="251.837" y="6.6665" width="16.0544" height="6.66664" rx="3.33332" fill="black"/>
<rect x="283.946" y="3.40161" width="16.0544" height="6.66664" rx="3.33332" fill="black"/>
<rect x="251.837" y="13.3333" width="16.0544" height="6.66664" rx="3.33332" fill="black"/>
<rect x="283.946" y="10.0681" width="16.0544" height="6.66664" rx="3.33332" fill="black"/>
<rect x="251.837" y="20" width="16.0544" height="6.66664" rx="3.33332" fill="black"/>
<rect x="251.837" y="26.6667" width="16.0544" height="6.66664" rx="3.33332" fill="black"/>
<rect x="251.837" y="33.3333" width="16.0544" height="6.66664" rx="3.33332" fill="black"/>
<rect x="275.918" y="26.6667" width="16.0544" height="6.66664" rx="3.33332" fill="black"/>
<rect x="283.946" y="33.3333" width="16.0544" height="6.66664" rx="3.33332" fill="black"/>
<rect x="267.891" y="20" width="16.0544" height="6.66664" rx="3.33332" fill="black"/>
<rect x="267.891" width="16.0544" height="6.66664" rx="3.33332" fill="black"/>
<rect x="267.891" y="6.6665" width="16.0544" height="6.66664" rx="3.33332" fill="black"/>
<rect x="267.891" y="13.3333" width="16.0544" height="6.66664" rx="3.33332" fill="black"/>
</svg>
