<svg width="20" height="20" viewBox="0 0 20 20" fill="none" xmlns="http://www.w3.org/2000/svg">
<path fill-rule="evenodd" clip-rule="evenodd" d="M10 0C10.789 0 11.4286 0.639593 11.4286 1.42857V8.57143H18.5714C19.3604 8.57143 20 9.21102 20 10C20 10.789 19.3604 11.4286 18.5714 11.4286H11.4286V18.5714C11.4286 19.3604 10.789 20 10 20C9.21102 20 8.57143 19.3604 8.57143 18.5714V11.4286H1.42857C0.639593 11.4286 0 10.789 0 10C0 9.21102 0.639593 8.57143 1.42857 8.57143H8.57143V1.42857C8.57143 0.639593 9.21102 0 10 0Z" fill="white"/>
</svg>
